<svg data-v-0dd9719b="" version="1.0" xmlns="http://www.w3.org/2000/svg"
                 xmlns:xlink="http://www.w3.org/1999/xlink" width="100%" height="100%"
                 viewBox="0 0 340.000000 250.000000" preserveAspectRatio="xMidYMid meet"
                 color-interpolation-filters="sRGB" style="margin: auto;">
                <rect data-v-0dd9719b="" x="0" y="0" width="100%" height="100%" fill="#040e29" fill-opacity="1"
                      class="background"></rect>
                <rect data-v-0dd9719b="" x="0" y="0" width="100%" height="100%" fill="url(#watermark)" fill-opacity="1"
                      class="watermarklayer"></rect>
                <g data-v-0dd9719b="" class="iconmbgsvg" transform="translate(67,59.62678527832031)">
                    <g fill="#ffffff" hollow-target="text">
                        <g transform="translate(39.25,0)" mask="url(#1e7527e1-cc01-4420-9eea-6ae8bdd592dc)">
                            <g>
                                <rect fill="#ffffff" fill-opacity="0" stroke-width="2" x="0" y="0" width="127.5"
                                      height="130.74643395510526" class="image-rect"></rect>
                                <svg filter="url(#colors537855327)" x="0" y="0" width="127.5"
                                     height="130.74643395510526" filtersec="colorsf1408700387"
                                     class="image-svg-svg primary" style="overflow: visible;">
                                    <svg fill="#000000" xmlns="http://www.w3.org/2000/svg" xmlns:xlink="http://www.w3.org/1999/xlink" version="1.1" x="0px" y="0px" viewBox="8 7 79.96366119384766 82" enable-background="new 0 0 96 96" xml:space="preserve"><path d="M69,27.1c6.8,0,13.2,3.3,17.1,8.9c0.2,0.3,0.5,0.4,0.8,0.4c0,0,0,0,0,0c0.6,0,1-0.4,1-1c0-0.2,0-0.3-0.1-0.5  C82.3,18.2,66.7,7,49,7C26.4,7,8,25.4,8,48s18.4,41,41,41c17.7,0,33.4-11.3,38.9-28.1c0.2-0.5-0.1-1-0.5-1.2c-0.4-0.2-1-0.1-1.3,0.3  c-3.9,5.6-10.3,8.9-17.1,8.9c-11.5,0-20.9-9.4-20.9-20.9S57.5,27.1,69,27.1z"></path><desc>Created with Snap</desc><defs></defs></svg>
                                </svg>
                                <defs>
                                    <filter id="colors537855327">
                                        <feColorMatrix type="matrix"
                                                       values="0 0 0 0 0.99609375  0 0 0 0 0.99609375  0 0 0 0 0.99609375  0 0 0 1 0"
                                                       class="icon-fecolormatrix"></feColorMatrix>
                                    </filter>
                                    <filter id="colorsf1408700387">
                                        <feColorMatrix type="matrix"
                                                       values="0 0 0 0 0.99609375  0 0 0 0 0.99609375  0 0 0 0 0.99609375  0 0 0 1 0"
                                                       class="icon-fecolormatrix"></feColorMatrix>
                                    </filter>
                                    <filter id="colorsb2039069076">
                                        <feColorMatrix type="matrix" values="0 0 0 0 0  0 0 0 0 0  0 0 0 0 0  0 0 0 1 0"
                                                       class="icon-fecolormatrix"></feColorMatrix>
                                    </filter>
                                </defs>
                            </g>
                            <rect v-gra="id" width="139.5" height="142.74642944335938" transform="translate(-6, -6)"
                                  style="pointer-events:none;" fill="url(#EUSH_Zykdo1FytVLBwwT6)"></rect>
                        </g>
                        <g transform="translate(0,47.52321434020996)">
                            <g data-gra="path-name" fill-rule="" class="tp-name">
                                <g transform="scale(1)">
                                    <g>
                                        <path d="M3 0L3-34.95 26.65-34.95 26.65-29.7 9.35-29.7 9.35-20.1 22.2-20.1 22.2-14.85 9.35-14.85 9.35-5.25 26.65-5.25 26.65 0 3 0ZM28.9 0L39.15-12.45 29.6-24 36.6-24 42.65-16.65 48.7-24 55.7-24 46.15-12.45 56.4 0 49.45 0 42.65-8.2 35.85 0 28.9 0ZM67.95 0.75Q63.65 0.75 60.9-1.53 58.15-3.8 58.15-7.65L58.15-7.65Q58.15-11.65 60.75-13.9 63.35-16.15 68.05-16.15L68.05-16.15Q72.6-16.15 75.9-14.3L75.9-14.3 75.9-14.95Q75.9-17.5 74.33-18.65 72.75-19.8 69.25-19.8L69.25-19.8Q67.05-19.8 64.9-19.38 62.75-18.95 61.1-18.2L61.1-18.2 61.1-23.15Q62.6-23.85 65.13-24.3 67.65-24.75 70-24.75L70-24.75Q76.25-24.75 79.25-22.08 82.25-19.4 82.25-14.65L82.25-14.65 82.25 0 76.3 0 76.3-2.35Q74.75-0.85 72.78-0.05 70.8 0.75 67.95 0.75L67.95 0.75ZM69.5-3.85Q71.6-3.85 73.3-4.67 75-5.5 75.9-6.95L75.9-6.95 75.9-9.6Q73.15-11.55 69.6-11.55L69.6-11.55Q64.55-11.55 64.55-7.65L64.55-7.65Q64.55-5.75 65.83-4.8 67.1-3.85 69.5-3.85L69.5-3.85ZM88 0L88-24 93.9-24 93.9-20.85Q95.5-22.75 97.65-23.75 99.8-24.75 102-24.75L102-24.75Q104.8-24.75 106.5-23.83 108.2-22.9 109.05-21.05L109.05-21.05Q110.65-22.85 112.92-23.8 115.2-24.75 117.45-24.75L117.45-24.75Q121.95-24.75 123.9-22.5 125.85-20.25 125.85-15.9L125.85-15.9 125.85 0 119.8 0 119.8-15.05Q119.8-17.6 118.78-18.7 117.75-19.8 115.5-19.8L115.5-19.8Q113.9-19.8 112.58-19.18 111.25-18.55 110.15-17.05L110.15-17.05Q110.25-15.45 110.25-14.45L110.25-14.45 110.25 0 104.15 0 104.15-15.15Q104.15-17.75 103.3-18.78 102.45-19.8 100.2-19.8L100.2-19.8Q96.8-19.8 94.1-15.95L94.1-15.95 94.1 0 88 0ZM131.6 0L131.6-34.95 145.6-34.95Q151.35-34.95 154.82-31.9 158.3-28.85 158.3-23.55L158.3-23.55Q158.3-18.05 154.85-15.18 151.4-12.3 145.55-12.3L145.55-12.3 137.95-12.3 137.95 0 131.6 0ZM137.95-17.55L144.8-17.55Q151.95-17.55 151.95-23.55L151.95-23.55Q151.95-29.7 144.8-29.7L144.8-29.7 137.95-29.7 137.95-17.55ZM162.3 0L162.3-24 168.4-24 168.4-20.15Q169.85-22.1 172.53-23.05 175.2-24 178.65-24L178.65-24 178.65-19.2Q175-19.2 172.33-18.07 169.65-16.95 168.6-14.55L168.6-14.55 168.6 0 162.3 0ZM194.95 0.75Q190.75 0.75 187.58-0.78 184.4-2.3 182.65-5.18 180.9-8.05 180.9-12L180.9-12Q180.9-15.85 182.63-18.73 184.35-21.6 187.55-23.18 190.75-24.75 194.95-24.75L194.95-24.75Q199.15-24.75 202.33-23.18 205.5-21.6 207.25-18.73 209-15.85 209-12L209-12Q209-8.05 207.25-5.18 205.5-2.3 202.33-0.78 199.15 0.75 194.95 0.75L194.95 0.75ZM194.95-4.2Q198.4-4.2 200.45-6.38 202.5-8.55 202.5-12L202.5-12Q202.5-15.65 200.48-17.73 198.45-19.8 194.95-19.8L194.95-19.8Q191.45-19.8 189.43-17.73 187.4-15.65 187.4-12L187.4-12Q187.4-8.55 189.45-6.38 191.5-4.2 194.95-4.2L194.95-4.2Z"
                                              transform="translate(-3, 34.95000076293945)"></path>
                                    </g> <!----> <!----> <!----> <!----> <!----> <!----> <!----></g>
                            </g> <!----></g>
                    </g>
                </g>
                <mask id="d387d34b-859b-4d9a-ba8e-c4b4a820b678">
                    <g fill="white">
                        <g>
                            <rect fill-opacity="1" stroke-width="2" x="0" y="0" width="127.5"
                                  height="130.74643395510526" class="image-rect"></rect>
                            <svg x="0" y="0" width="127.5" height="130.74643395510526" class="image-svg-svg primary"
                                 style="overflow: visible;" filter="url(#colorsf1408700387)">
                                <svg xmlns="http://www.w3.org/2000/svg" xmlns:xlink="http://www.w3.org/1999/xlink" version="1.1" x="0px" y="0px" viewBox="8 7 79.96366119384766 82" enable-background="new 0 0 96 96" xml:space="preserve"><path d="M69,27.1c6.8,0,13.2,3.3,17.1,8.9c0.2,0.3,0.5,0.4,0.8,0.4c0,0,0,0,0,0c0.6,0,1-0.4,1-1c0-0.2,0-0.3-0.1-0.5  C82.3,18.2,66.7,7,49,7C26.4,7,8,25.4,8,48s18.4,41,41,41c17.7,0,33.4-11.3,38.9-28.1c0.2-0.5-0.1-1-0.5-1.2c-0.4-0.2-1-0.1-1.3,0.3  c-3.9,5.6-10.3,8.9-17.1,8.9c-11.5,0-20.9-9.4-20.9-20.9S57.5,27.1,69,27.1z"></path><desc>Created with Snap</desc><defs></defs></svg>
                            </svg>
                            <defs></defs>
                        </g>
                    </g>
                    <g transform="translate(-39.25,47.52321434020996)" fill="black" stroke="black" stroke-width="6"
                       stroke-linejoin="round">
                        <g data-gra="path-name" fill-rule="" class="tp-name">
                            <g transform="scale(1)">
                                <g>
                                    <path d="M3 0L3-34.95 26.65-34.95 26.65-29.7 9.35-29.7 9.35-20.1 22.2-20.1 22.2-14.85 9.35-14.85 9.35-5.25 26.65-5.25 26.65 0 3 0ZM28.9 0L39.15-12.45 29.6-24 36.6-24 42.65-16.65 48.7-24 55.7-24 46.15-12.45 56.4 0 49.45 0 42.65-8.2 35.85 0 28.9 0ZM67.95 0.75Q63.65 0.75 60.9-1.53 58.15-3.8 58.15-7.65L58.15-7.65Q58.15-11.65 60.75-13.9 63.35-16.15 68.05-16.15L68.05-16.15Q72.6-16.15 75.9-14.3L75.9-14.3 75.9-14.95Q75.9-17.5 74.33-18.65 72.75-19.8 69.25-19.8L69.25-19.8Q67.05-19.8 64.9-19.38 62.75-18.95 61.1-18.2L61.1-18.2 61.1-23.15Q62.6-23.85 65.13-24.3 67.65-24.75 70-24.75L70-24.75Q76.25-24.75 79.25-22.08 82.25-19.4 82.25-14.65L82.25-14.65 82.25 0 76.3 0 76.3-2.35Q74.75-0.85 72.78-0.05 70.8 0.75 67.95 0.75L67.95 0.75ZM69.5-3.85Q71.6-3.85 73.3-4.67 75-5.5 75.9-6.95L75.9-6.95 75.9-9.6Q73.15-11.55 69.6-11.55L69.6-11.55Q64.55-11.55 64.55-7.65L64.55-7.65Q64.55-5.75 65.83-4.8 67.1-3.85 69.5-3.85L69.5-3.85ZM88 0L88-24 93.9-24 93.9-20.85Q95.5-22.75 97.65-23.75 99.8-24.75 102-24.75L102-24.75Q104.8-24.75 106.5-23.83 108.2-22.9 109.05-21.05L109.05-21.05Q110.65-22.85 112.92-23.8 115.2-24.75 117.45-24.75L117.45-24.75Q121.95-24.75 123.9-22.5 125.85-20.25 125.85-15.9L125.85-15.9 125.85 0 119.8 0 119.8-15.05Q119.8-17.6 118.78-18.7 117.75-19.8 115.5-19.8L115.5-19.8Q113.9-19.8 112.58-19.18 111.25-18.55 110.15-17.05L110.15-17.05Q110.25-15.45 110.25-14.45L110.25-14.45 110.25 0 104.15 0 104.15-15.15Q104.15-17.75 103.3-18.78 102.45-19.8 100.2-19.8L100.2-19.8Q96.8-19.8 94.1-15.95L94.1-15.95 94.1 0 88 0ZM131.6 0L131.6-34.95 145.6-34.95Q151.35-34.95 154.82-31.9 158.3-28.85 158.3-23.55L158.3-23.55Q158.3-18.05 154.85-15.18 151.4-12.3 145.55-12.3L145.55-12.3 137.95-12.3 137.95 0 131.6 0ZM137.95-17.55L144.8-17.55Q151.95-17.55 151.95-23.55L151.95-23.55Q151.95-29.7 144.8-29.7L144.8-29.7 137.95-29.7 137.95-17.55ZM162.3 0L162.3-24 168.4-24 168.4-20.15Q169.85-22.1 172.53-23.05 175.2-24 178.65-24L178.65-24 178.65-19.2Q175-19.2 172.33-18.07 169.65-16.95 168.6-14.55L168.6-14.55 168.6 0 162.3 0ZM194.95 0.75Q190.75 0.75 187.58-0.78 184.4-2.3 182.65-5.18 180.9-8.05 180.9-12L180.9-12Q180.9-15.85 182.63-18.73 184.35-21.6 187.55-23.18 190.75-24.75 194.95-24.75L194.95-24.75Q199.15-24.75 202.33-23.18 205.5-21.6 207.25-18.73 209-15.85 209-12L209-12Q209-8.05 207.25-5.18 205.5-2.3 202.33-0.78 199.15 0.75 194.95 0.75L194.95 0.75ZM194.95-4.2Q198.4-4.2 200.45-6.38 202.5-8.55 202.5-12L202.5-12Q202.5-15.65 200.48-17.73 198.45-19.8 194.95-19.8L194.95-19.8Q191.45-19.8 189.43-17.73 187.4-15.65 187.4-12L187.4-12Q187.4-8.55 189.45-6.38 191.5-4.2 194.95-4.2L194.95-4.2Z"
                                          transform="translate(-3, 34.95000076293945)"></path>
                                </g>
                            </g>
                        </g>
                    </g>
                </mask>
                <defs v-gra="od"></defs>
                <defs v-gra="id">
                    <filter id="60114e0d-9e2f-4a8a-8054-1778ece3a54a" filterUnits="userSpaceOnUse">
                        <feColorMatrix type="matrix"
                                       values="0 0 0 0 0.99609375  0 0 0 0 0.99609375  0 0 0 0 0.99609375  0 0 0 1 0"></feColorMatrix>
                    </filter>
                    <linearGradient x1="0" y1="1" x2="0" y2="0" id="EUSH_Zykdo1FytVLBwwT6">
                        <stop offset="0%" stop-color="#4481eb"></stop>
                        <stop offset="100%" stop-color="#05befe"></stop>
                    </linearGradient>
                    <filter id="42443b3f1de60f6b6fd3b6a9844b4764" filterUnits="objectBoundingBox">
                        <feColorMatrix type="matrix"
                                       values="0 0 0 0 0.99609375  0 0 0 0 0.99609375  0 0 0 0 0.99609375  0 0 0 1 0"></feColorMatrix>
                    </filter>
                </defs>
                <mask v-gra="im" id="1e7527e1-cc01-4420-9eea-6ae8bdd592dc">
                    <g mask="url(#d387d34b-859b-4d9a-ba8e-c4b4a820b678)"
                       filter="url(#60114e0d-9e2f-4a8a-8054-1778ece3a54a)">
                        <g>
                            <rect fill="#ffffff" fill-opacity="0" stroke-width="2" x="0" y="0" width="127.5"
                                  height="130.74643395510526" class="image-rect"></rect>
                            <svg x="0" y="0" width="127.5" height="130.74643395510526" filtersec="colorsf1408700387"
                                 class="image-svg-svg primary" style="overflow: visible;">
                                <svg fill="#000000" xmlns="http://www.w3.org/2000/svg" xmlns:xlink="http://www.w3.org/1999/xlink" version="1.1" x="0px" y="0px" viewBox="8 7 79.96366119384766 82" enable-background="new 0 0 96 96" xml:space="preserve"><path d="M69,27.1c6.8,0,13.2,3.3,17.1,8.9c0.2,0.3,0.5,0.4,0.8,0.4c0,0,0,0,0,0c0.6,0,1-0.4,1-1c0-0.2,0-0.3-0.1-0.5  C82.3,18.2,66.7,7,49,7C26.4,7,8,25.4,8,48s18.4,41,41,41c17.7,0,33.4-11.3,38.9-28.1c0.2-0.5-0.1-1-0.5-1.2c-0.4-0.2-1-0.1-1.3,0.3  c-3.9,5.6-10.3,8.9-17.1,8.9c-11.5,0-20.9-9.4-20.9-20.9S57.5,27.1,69,27.1z"></path><desc>Created with Snap</desc><defs></defs></svg>
                            </svg>
                            <defs>
                                <filter id="colors537855327">
                                    <feColorMatrix type="matrix"
                                                   values="0 0 0 0 0.99609375  0 0 0 0 0.99609375  0 0 0 0 0.99609375  0 0 0 1 0"
                                                   class="icon-fecolormatrix"></feColorMatrix>
                                </filter>
                                <filter id="colorsf1408700387">
                                    <feColorMatrix type="matrix"
                                                   values="0 0 0 0 0.99609375  0 0 0 0 0.99609375  0 0 0 0 0.99609375  0 0 0 1 0"
                                                   class="icon-fecolormatrix"></feColorMatrix>
                                </filter>
                                <filter id="colorsb2039069076">
                                    <feColorMatrix type="matrix" values="0 0 0 0 0  0 0 0 0 0  0 0 0 0 0  0 0 0 1 0"
                                                   class="icon-fecolormatrix"></feColorMatrix>
                                </filter>
                            </defs>
                        </g>
                    </g>
                </mask>
            </svg>